<?xml version="1.0" standalone="no"?>
<!DOCTYPE svg PUBLIC "-//W3C//DTD SVG 20010904//EN"
 "http://www.w3.org/TR/2001/REC-SVG-20010904/DTD/svg10.dtd">
<svg version="1.0" xmlns="http://www.w3.org/2000/svg"
 width="640.000000pt" height="248.000000pt" viewBox="0 0 640.000000 248.000000"
 preserveAspectRatio="xMidYMid meet">

<g transform="translate(0.000000,248.000000) scale(0.100000,-0.100000)"
fill="#000000" stroke="none">
<path d="M4326 2242 c-25 -37 -46 -79 -46 -93 -1 -38 -24 -93 -57 -135 -18
-23 -36 -62 -43 -94 -27 -125 -44 -177 -72 -217 -44 -64 -59 -117 -69 -241
-11 -142 -20 -161 -42 -92 -11 35 -17 86 -17 155 0 79 -3 105 -15 115 -9 7
-15 29 -15 51 0 21 -4 41 -10 44 -5 3 -10 33 -10 66 0 38 -6 69 -16 84 -19 29
-15 90 12 182 15 51 16 65 5 75 -10 11 -18 6 -42 -22 -16 -19 -32 -46 -35 -60
-3 -14 -19 -52 -34 -85 -16 -33 -31 -69 -35 -79 -5 -19 -6 -19 -20 0 -12 16
-17 17 -34 7 -12 -7 -27 -13 -34 -13 -9 0 -20 -29 -31 -82 -10 -46 -29 -118
-42 -160 -16 -51 -24 -97 -23 -135 7 -197 6 -208 -27 -254 -47 -66 -56 -108
-36 -177 8 -31 16 -91 17 -132 2 -219 5 -250 20 -250 18 0 25 17 54 120 17 61
19 83 10 119 -12 56 -5 90 30 138 21 29 29 54 34 108 4 39 12 104 19 145 6 41
12 129 13 195 0 115 3 136 27 198 17 45 28 31 28 -38 0 -53 4 -68 20 -82 11
-10 20 -22 20 -28 0 -7 11 -22 24 -34 15 -14 26 -38 30 -67 3 -24 15 -66 26
-92 11 -26 23 -85 27 -132 7 -79 10 -86 35 -98 28 -13 32 -21 42 -83 7 -41 28
-64 51 -55 11 4 15 21 15 63 0 37 8 74 21 103 11 25 24 77 28 115 5 56 13 79
39 114 30 41 32 50 32 122 0 79 17 169 32 169 4 0 8 -20 8 -44 0 -32 6 -50 25
-70 30 -33 30 -28 4 -124 -13 -49 -18 -92 -15 -117 3 -22 10 -81 15 -132 9
-87 35 -162 61 -178 7 -5 9 -30 4 -73 -5 -60 -4 -69 15 -86 13 -12 21 -31 21
-52 0 -25 7 -39 30 -56 21 -15 30 -30 30 -51 0 -25 3 -28 28 -25 37 4 40 42 8
106 -21 41 -24 58 -19 105 5 47 2 60 -16 82 -16 22 -20 36 -15 67 5 28 2 48
-12 73 -16 31 -17 40 -5 87 15 61 23 248 11 263 -4 6 -11 43 -15 84 -4 41 -14
89 -21 107 -8 18 -14 62 -14 97 0 34 -7 90 -16 122 -25 95 -15 200 31 309 20
48 34 94 31 102 -11 29 -36 12 -80 -54z m28 -45 c-47 -116 -56 -202 -32 -299
9 -40 17 -103 18 -139 0 -37 6 -82 14 -100 8 -19 17 -68 21 -109 4 -41 11 -79
15 -85 11 -15 5 -195 -9 -228 -16 -40 -14 -93 5 -122 11 -17 14 -36 9 -67 -5
-36 -3 -48 15 -71 19 -24 21 -35 15 -82 -5 -45 -2 -61 19 -104 27 -53 33 -81
16 -81 -5 0 -10 10 -10 23 0 14 -12 32 -30 45 -23 18 -30 30 -30 57 0 22 -8
41 -21 54 -19 17 -20 26 -14 78 5 50 4 62 -14 85 -32 40 -43 77 -46 150 -1 36
-9 89 -16 117 -12 46 -11 59 6 119 26 90 25 139 -3 160 -16 13 -22 30 -24 72
-3 47 -6 55 -23 55 -29 0 -53 -80 -54 -180 -1 -74 -4 -85 -36 -135 -26 -41
-35 -65 -35 -97 0 -24 -9 -69 -21 -101 -12 -31 -24 -86 -28 -122 -6 -58 -8
-62 -18 -40 -6 14 -15 43 -19 65 -7 28 -17 43 -35 52 -24 12 -27 19 -32 93 -4
46 -15 98 -26 123 -11 24 -23 67 -27 95 -4 36 -15 61 -35 84 -16 18 -36 41
-44 50 -8 10 -15 44 -17 85 -2 56 -6 68 -21 71 -44 9 -71 -81 -73 -238 0 -63
-6 -151 -13 -195 -6 -44 -14 -109 -18 -144 -5 -50 -13 -75 -37 -109 -30 -42
-31 -48 -28 -131 2 -59 -3 -101 -13 -130 -8 -24 -16 -55 -17 -70 0 -14 -5 17
-9 69 -4 52 -5 118 -3 146 4 34 1 63 -10 88 -28 67 -21 123 22 185 l37 55 0
155 c0 101 5 165 12 181 11 21 30 94 57 213 4 15 10 25 15 23 5 -3 14 1 21 9
11 13 14 13 25 -2 18 -25 43 -9 55 35 5 22 17 45 25 52 8 7 22 36 30 64 15 50
55 123 55 100 0 -7 -10 -43 -21 -80 -26 -83 -28 -147 -7 -171 9 -10 19 -44 22
-78 9 -103 18 -149 31 -165 8 -10 13 -48 14 -110 1 -52 6 -113 12 -135 6 -22
13 -52 16 -67 8 -40 38 -37 53 5 6 17 14 70 16 117 7 112 29 197 65 242 30 38
69 143 69 188 0 39 28 110 59 149 31 39 51 91 51 128 0 20 79 148 86 140 2 -1
-13 -42 -32 -90z"/>
<path d="M460 2216 c-8 -7 -39 -30 -69 -50 -51 -34 -58 -37 -106 -31 -48 6
-55 5 -86 -23 -19 -17 -45 -32 -59 -34 -16 -2 -28 -12 -34 -31 -9 -24 -6 -31
24 -62 l34 -35 -11 -55 c-14 -67 -5 -105 37 -148 28 -28 30 -36 28 -92 -3 -91
12 -187 33 -217 10 -15 19 -40 19 -56 0 -16 7 -50 16 -76 12 -34 15 -67 11
-113 -4 -56 -1 -72 20 -113 20 -38 23 -52 14 -68 -20 -37 -12 -90 25 -167 23
-48 36 -91 36 -115 -1 -25 6 -44 19 -56 12 -11 19 -30 19 -54 0 -41 21 -77 38
-66 7 4 12 24 12 45 0 26 7 44 21 57 18 16 20 25 14 59 -4 22 -7 66 -6 97 1
47 -3 65 -25 97 -20 31 -25 47 -19 68 14 53 13 186 -2 216 -16 31 -9 67 12 67
7 0 27 -11 43 -25 20 -16 42 -25 66 -25 31 0 38 -5 58 -40 27 -46 41 -54 68
-38 15 10 22 9 38 -5 10 -9 25 -17 34 -17 8 0 26 -21 40 -47 23 -44 27 -48 62
-48 35 0 40 -4 60 -44 15 -28 35 -50 57 -60 19 -9 43 -33 55 -55 12 -21 38
-48 58 -59 28 -16 39 -31 51 -71 17 -56 86 -143 104 -132 23 15 12 80 -24 136
-19 30 -35 66 -35 80 0 26 -36 70 -57 70 -5 0 -18 16 -29 36 -10 20 -31 42
-45 49 -16 9 -30 28 -37 54 -7 22 -25 50 -41 64 -16 13 -39 43 -50 65 -25 48
-62 77 -92 69 -15 -4 -23 1 -31 19 -7 14 -20 24 -32 24 -14 0 -29 13 -43 39
-14 24 -32 41 -45 43 -30 4 -33 22 -4 37 13 7 28 23 34 35 6 13 26 27 51 34
47 14 69 42 77 94 4 21 13 43 20 49 8 6 14 23 14 37 0 13 10 41 22 60 18 29
22 53 24 133 2 85 0 100 -17 115 -16 14 -18 26 -13 69 6 47 4 54 -17 68 -16
12 -34 15 -59 11 -35 -6 -37 -4 -43 25 -6 27 -11 31 -39 31 -18 0 -69 19 -119
45 -92 47 -151 58 -179 31z m172 -51 c48 -25 101 -45 118 -45 25 0 30 -4 30
-25 0 -29 26 -44 60 -35 14 4 33 3 44 -2 15 -8 17 -17 12 -62 -6 -44 -4 -55
12 -69 17 -16 19 -30 18 -112 -2 -74 -6 -98 -19 -113 -10 -11 -21 -37 -24 -58
-4 -22 -12 -43 -19 -49 -6 -5 -15 -26 -18 -45 -9 -51 -30 -77 -71 -84 -24 -5
-39 -15 -47 -30 -5 -13 -21 -29 -34 -36 -12 -7 -25 -19 -28 -27 -9 -21 12 -53
34 -53 11 0 27 -16 42 -42 17 -30 30 -42 44 -41 12 1 24 -7 29 -20 8 -16 18
-21 40 -20 34 3 61 -19 80 -64 8 -18 28 -45 46 -61 18 -16 38 -47 44 -68 7
-26 19 -43 38 -52 15 -7 34 -26 41 -41 8 -15 31 -40 50 -55 20 -15 36 -36 36
-47 0 -23 24 -72 51 -108 11 -13 19 -36 19 -52 l0 -28 -29 27 c-16 15 -37 51
-47 80 -17 53 -43 87 -73 97 -9 3 -28 25 -44 50 -17 30 -38 50 -57 57 -22 7
-38 25 -56 60 -25 48 -26 50 -60 44 -31 -6 -35 -4 -45 21 -14 38 -48 73 -71
73 -10 0 -18 4 -18 10 0 15 -49 24 -63 11 -10 -8 -18 -3 -31 22 -26 45 -57 67
-84 60 -17 -4 -34 4 -63 27 l-40 32 -25 -23 c-26 -24 -31 -58 -13 -76 16 -16
20 -161 6 -201 -11 -31 -9 -39 19 -90 26 -47 30 -62 23 -87 -6 -19 -5 -47 3
-77 11 -44 10 -50 -9 -70 -12 -13 -23 -39 -26 -58 -4 -33 -4 -33 -5 8 -1 25
-9 49 -19 60 -12 11 -18 34 -19 65 -1 29 -7 54 -17 65 -10 10 -17 24 -17 30 0
6 -9 30 -21 52 -16 31 -20 50 -15 83 10 68 9 84 -9 119 -13 24 -17 53 -16 109
2 51 -3 89 -15 117 -9 23 -14 52 -11 64 4 15 -2 33 -19 55 -16 21 -24 45 -24
65 1 18 -3 50 -8 72 -6 21 -8 61 -5 90 5 48 3 54 -32 96 l-37 45 7 77 c6 76 6
77 -25 109 -35 37 -36 63 -3 65 12 1 39 16 58 33 33 29 41 31 80 26 47 -8 77
4 154 61 28 20 58 34 76 34 17 0 69 -20 117 -45z"/>
<path d="M434 1979 c-30 -24 -45 -29 -68 -25 -20 4 -35 1 -48 -10 -20 -19 -24
-64 -7 -81 5 -5 11 -34 13 -63 1 -37 7 -55 19 -62 12 -6 17 -22 17 -54 0 -32
6 -49 20 -61 13 -12 20 -30 20 -55 0 -20 5 -40 10 -43 7 -4 8 -24 5 -50 -8
-51 4 -62 46 -45 23 10 33 10 42 1 18 -18 42 -13 82 19 22 18 50 30 67 30 33
0 68 47 68 92 0 16 12 41 30 61 21 24 30 45 30 68 -1 19 -1 52 -1 74 0 31 -7
47 -30 71 -17 18 -27 37 -24 45 3 9 -4 28 -16 43 -17 21 -27 26 -48 21 -21 -5
-31 0 -48 23 -19 25 -27 29 -81 30 -53 1 -64 -2 -98 -29z m171 -25 c18 -22 27
-26 51 -21 23 4 33 1 42 -13 6 -11 9 -26 6 -34 -3 -7 8 -29 24 -48 22 -25 29
-40 25 -60 -3 -14 -1 -34 4 -44 13 -25 4 -56 -25 -89 -12 -14 -27 -46 -31 -70
-10 -52 -26 -75 -53 -75 -24 0 -56 -16 -86 -43 -19 -18 -26 -19 -42 -9 -24 15
-57 16 -65 2 -16 -25 -26 -7 -20 34 5 28 3 46 -4 50 -6 4 -11 25 -11 46 0 28
-6 43 -21 53 -12 9 -20 24 -19 39 4 42 0 55 -21 79 -15 18 -19 33 -15 57 3 21
-1 43 -12 62 -24 41 -7 66 40 62 26 -2 43 4 72 27 34 27 45 30 89 27 40 -3 54
-9 72 -32z"/>
<path d="M1144 1915 c-13 -9 -20 -27 -21 -57 -1 -24 -4 -59 -8 -79 -6 -31 -3
-39 20 -58 33 -26 71 -27 83 -3 5 9 12 43 16 74 5 51 4 57 -14 63 -13 4 -20
15 -20 30 0 32 -31 49 -56 30z m36 -39 c0 -25 22 -50 33 -39 7 6 -1 -78 -9
-104 -9 -31 -74 2 -74 37 0 10 6 30 14 45 10 18 12 35 6 50 -5 14 -4 27 2 33
15 15 28 5 28 -22z"/>
<path d="M1885 1870 c-3 -5 -15 -10 -25 -10 -24 0 -32 -28 -27 -90 4 -48 -12
-143 -38 -238 -10 -31 -23 -79 -31 -106 -8 -26 -11 -52 -8 -57 10 -17 41 -9
57 14 23 35 29 15 16 -54 -7 -35 -12 -84 -11 -109 2 -56 -15 -163 -34 -213
-24 -65 -11 -117 27 -102 18 7 55 110 70 198 11 60 16 69 43 82 29 15 31 14
53 -12 28 -33 62 -101 63 -124 0 -9 13 -33 29 -53 17 -21 35 -54 42 -74 7 -20
20 -50 31 -67 10 -16 23 -47 29 -68 9 -34 13 -38 34 -33 13 3 27 2 30 -4 3 -5
10 -10 16 -10 15 0 10 62 -10 120 -11 30 -25 84 -31 120 -6 36 -19 76 -27 90
-9 13 -22 43 -28 65 -10 32 -19 42 -44 51 -20 6 -47 30 -71 62 -81 106 -86
142 -22 163 60 20 82 39 107 95 18 40 32 57 62 72 21 11 45 32 53 47 8 15 27
37 42 50 31 26 37 55 13 55 -27 0 -72 -28 -142 -90 -37 -33 -76 -60 -85 -60
-9 0 -29 -11 -45 -24 -15 -13 -42 -30 -59 -39 -30 -16 -32 -16 -37 4 -3 11 -1
34 5 50 7 21 7 52 -1 104 -7 50 -8 83 -1 100 14 36 13 78 -2 93 -15 15 -35 16
-43 2z m30 -64 c-5 -22 -7 -68 -5 -101 3 -56 3 -97 -2 -171 -1 -16 1 -38 5
-48 6 -15 11 -15 54 10 27 15 57 36 69 46 11 10 28 18 39 18 10 0 45 24 79 53
103 90 170 130 101 62 -19 -20 -35 -40 -35 -45 0 -5 -20 -21 -45 -36 -44 -25
-75 -66 -75 -98 0 -17 -40 -47 -90 -66 -64 -25 -75 -61 -37 -120 61 -97 99
-140 123 -140 15 0 27 -7 30 -17 4 -10 17 -40 29 -68 13 -27 29 -78 35 -112 9
-53 23 -101 55 -188 l8 -20 -17 20 c-16 20 -16 20 -31 1 -15 -19 -15 -19 -15
1 0 26 -75 178 -107 216 -12 16 -23 37 -23 48 0 24 -34 92 -68 137 -24 31 -55
42 -67 22 -3 -5 -15 -10 -26 -10 -10 0 -19 -1 -19 -2 -5 -36 -43 -196 -56
-231 -22 -62 -43 -49 -25 15 27 96 42 185 36 220 -3 20 -1 47 4 60 5 13 12 54
16 91 6 59 5 68 -10 74 -13 4 -25 -2 -41 -20 -30 -35 -35 -34 -23 6 6 17 26
93 46 167 27 107 33 148 30 198 -4 55 -3 62 14 62 10 0 21 5 24 10 15 24 27
-4 20 -44z"/>
<path d="M5398 1838 c-22 -18 -78 -128 -78 -155 0 -12 -5 -34 -11 -50 -11 -28
-24 -91 -37 -171 -6 -40 -11 -45 -47 -58 -60 -21 -70 -18 -46 12 28 35 26 58
-6 113 -15 25 -28 59 -28 76 0 30 -1 30 -69 38 -76 8 -90 2 -124 -55 -9 -16
-20 -28 -23 -28 -4 0 -11 25 -14 55 -7 55 -19 75 -35 59 -5 -5 -17 -78 -26
-163 l-17 -154 23 -19 c22 -18 23 -22 11 -54 -7 -21 -10 -47 -5 -67 4 -17 7
-72 8 -122 1 -83 3 -90 21 -90 14 0 21 8 23 25 1 14 9 51 18 84 9 32 15 79 14
105 -2 25 -2 53 -1 61 3 31 21 -14 21 -53 0 -22 5 -40 14 -43 24 -9 106 -133
106 -160 0 -37 30 -136 45 -153 35 -36 59 19 30 69 -8 14 -14 53 -15 89 0 51
-5 74 -26 108 -14 25 -23 50 -21 57 8 20 -20 73 -47 91 -37 24 -32 41 17 67
67 36 80 40 74 24 -7 -17 11 -36 35 -36 13 0 70 -21 96 -36 2 -1 -4 -31 -13
-67 -10 -41 -13 -73 -8 -84 10 -22 9 -160 -2 -265 -7 -74 -7 -78 12 -78 13 0
25 10 32 28 11 27 40 206 47 297 13 145 17 175 26 175 5 0 23 -7 40 -16 18 -9
42 -14 58 -10 16 3 35 -1 46 -9 28 -21 50 -18 79 10 32 33 32 43 -2 57 -16 6
-42 17 -59 26 -17 8 -43 13 -57 10 -16 -3 -28 0 -31 8 -3 9 -21 14 -45 14 -46
0 -57 11 -40 42 12 22 47 146 56 201 4 18 -1 35 -12 47 -17 19 -17 22 10 73
36 67 26 108 -17 75z m-2 -71 c-30 -51 -32 -69 -10 -88 9 -7 14 -22 11 -33
-21 -91 -51 -193 -59 -203 -6 -7 -7 -24 -4 -38 6 -22 12 -25 51 -25 35 0 45
-4 45 -16 0 -13 7 -15 36 -10 24 5 43 3 57 -7 12 -8 35 -17 52 -21 28 -7 28
-8 10 -18 -11 -6 -23 -16 -27 -21 -4 -7 -16 -4 -33 7 -17 11 -36 15 -51 12
-14 -4 -37 0 -55 9 -17 9 -40 15 -52 13 -19 -3 -23 -12 -30 -68 -4 -36 -8 -84
-7 -106 0 -23 -6 -60 -14 -82 -8 -22 -12 -42 -10 -45 7 -6 -23 -187 -32 -196
-3 -3 -3 26 2 64 11 94 12 223 1 262 -5 20 -4 39 2 51 5 10 13 42 17 70 6 48
5 52 -14 52 -11 0 -33 7 -48 15 -16 8 -38 15 -49 16 -11 0 3 8 30 17 70 24 72
26 78 79 19 148 68 309 110 362 23 28 18 -9 -7 -52z m-294 -147 c27 0 30 -2
24 -26 -5 -19 1 -36 24 -67 29 -40 37 -71 22 -93 -4 -6 -40 -28 -80 -50 -92
-49 -102 -74 -49 -117 29 -22 37 -36 37 -60 0 -18 11 -50 25 -72 19 -31 24
-54 25 -102 0 -35 7 -81 16 -103 9 -23 14 -43 11 -47 -11 -10 -47 100 -47 143
0 29 -76 149 -107 167 -7 4 -13 23 -13 42 0 40 -16 85 -29 85 -21 0 -39 -55
-34 -102 3 -28 -1 -64 -10 -94 -9 -27 -18 -62 -20 -79 -3 -16 -5 13 -6 65 -1
52 -1 109 -2 125 0 17 3 45 7 64 6 28 3 37 -16 51 -22 17 -22 17 -10 131 12
108 30 170 30 102 0 -69 25 -83 54 -30 35 60 58 79 90 73 16 -3 42 -6 58 -6z"/>
<path d="M4977 1508 c-20 -23 -37 -47 -37 -53 0 -17 53 -84 67 -85 6 0 23 14
38 32 19 23 25 38 20 56 -4 17 0 31 16 48 27 29 17 44 -30 44 -32 0 -43 -7
-74 -42z m78 2 c-11 -13 -15 -27 -11 -44 4 -16 0 -32 -13 -47 l-19 -24 -26 24
c-14 14 -26 27 -26 31 0 19 68 80 89 80 23 0 24 -1 6 -20z"/>
<path d="M1159 1608 c-23 -10 -27 -18 -32 -67 -4 -33 -2 -60 5 -68 6 -7 8 -26
4 -43 -3 -16 -9 -43 -12 -59 -4 -18 0 -38 9 -52 11 -17 15 -49 15 -105 0 -44
5 -90 11 -102 6 -11 11 -45 11 -76 0 -67 7 -86 30 -86 23 0 30 19 30 79 0 26
7 69 16 95 14 40 15 54 4 85 -10 32 -10 43 4 69 21 41 20 69 -3 82 -28 14 -34
44 -22 98 7 29 9 68 4 102 -9 60 -22 69 -74 48z m54 -61 c4 -29 2 -70 -4 -90
-13 -48 -4 -93 24 -112 20 -14 20 -16 4 -50 -20 -42 -21 -65 -6 -99 9 -20 8
-33 -5 -66 -9 -22 -16 -67 -16 -100 0 -33 -4 -60 -10 -60 -6 0 -10 29 -10 68
0 37 -5 73 -11 79 -6 6 -10 49 -10 101 0 67 -3 93 -14 102 -19 16 -19 38 0 84
14 32 14 41 2 65 -25 51 -2 131 39 131 6 0 14 -23 17 -53z"/>
<path d="M3162 1603 c-20 -17 -41 -83 -74 -235 -6 -27 -15 -48 -20 -48 -15 0
-98 -82 -98 -98 0 -8 -3 -12 -6 -9 -4 4 1 56 11 115 19 111 17 142 -8 142 -15
0 -35 -40 -65 -127 -18 -50 -32 -60 -32 -22 0 10 -10 21 -22 25 -27 8 -38 22
-38 50 0 28 -37 61 -51 47 -6 -6 -10 -49 -10 -96 0 -48 -4 -89 -9 -92 -13 -8
-13 -72 -1 -80 5 -3 9 -19 9 -36 -1 -34 14 -54 35 -46 18 7 28 70 20 122 -6
37 -5 39 11 26 9 -8 35 -45 58 -83 38 -64 68 -87 68 -53 0 8 5 15 10 15 6 0
10 -7 10 -15 0 -16 71 -54 102 -55 9 0 25 11 36 25 24 30 32 31 32 6 0 -29 43
-76 63 -68 23 9 22 50 -3 122 -24 71 -26 158 -4 237 13 47 14 64 5 84 -9 20
-9 40 1 85 14 69 4 91 -30 62z m7 -68 c-9 -36 -9 -55 -1 -79 9 -24 8 -42 -3
-80 -21 -70 -19 -171 5 -241 11 -32 20 -69 20 -82 0 -33 -23 -24 -34 13 -5 16
-13 40 -18 54 l-9 24 -32 -38 -32 -38 -43 17 -42 17 0 56 c0 56 1 57 58 112
62 58 60 53 103 225 21 83 28 99 35 92 3 -3 0 -26 -7 -52z m-213 -198 c-9 -45
-20 -113 -24 -152 l-8 -70 -31 50 c-17 28 -38 59 -47 70 -9 11 -22 29 -30 39
-24 35 -39 9 -34 -58 3 -34 2 -72 -2 -86 -8 -23 -8 -23 -9 8 -1 18 -6 41 -13
52 -10 15 -10 26 0 53 7 18 12 66 12 107 0 77 8 84 25 22 8 -27 17 -38 33 -40
13 -2 22 -10 22 -21 0 -24 25 -45 45 -37 8 3 15 16 15 29 0 13 4 27 9 33 4 5
17 33 27 63 25 71 30 40 10 -62z m1 -174 c-3 -10 -5 -4 -5 12 0 17 2 24 5 18
2 -7 2 -21 0 -30z"/>
<path d="M3052 1231 c-31 -29 -38 -53 -26 -85 16 -41 94 6 94 56 0 22 -17 58
-28 58 -4 0 -22 -13 -40 -29z m38 -49 c-20 -34 -50 -42 -50 -13 0 27 40 65 54
51 8 -8 6 -19 -4 -38z"/>
<path d="M5667 1603 c-4 -3 -7 -36 -7 -73 0 -36 -5 -71 -10 -76 -15 -15 5
-249 24 -296 9 -21 16 -55 16 -77 0 -31 4 -41 20 -46 25 -8 25 -18 0 -97 -11
-34 -20 -79 -20 -99 0 -34 -2 -36 -62 -61 -54 -22 -63 -30 -61 -50 2 -18 -8
-29 -43 -50 -52 -32 -61 -50 -47 -89 10 -26 8 -31 -38 -74 -27 -25 -53 -54
-59 -65 -6 -11 -17 -20 -24 -20 -7 0 -25 -17 -39 -39 -14 -21 -49 -52 -79 -69
-101 -58 -163 -135 -127 -157 5 -4 37 17 71 46 47 41 75 56 126 71 60 16 74
26 144 95 43 43 78 82 78 87 0 5 19 35 43 65 24 31 49 71 56 88 9 23 35 47 82
78 41 27 84 66 104 94 27 37 48 54 89 71 53 21 93 55 115 97 6 13 28 31 49 41
68 33 232 162 232 183 0 10 -5 19 -10 19 -19 0 -80 -29 -108 -50 -58 -45 -110
-75 -185 -105 -43 -18 -89 -43 -102 -55 l-24 -23 6 37 c5 35 2 46 -38 128 -5
10 -9 51 -9 92 0 67 -3 78 -24 98 -17 15 -35 57 -55 125 -41 139 -62 178 -84
156z m62 -153 c1 -29 43 -125 62 -143 15 -14 19 -32 19 -93 0 -41 4 -82 9 -92
44 -86 45 -89 33 -130 -15 -51 -15 -52 6 -52 10 0 31 13 46 29 16 16 56 39 90
52 64 23 135 63 197 111 40 30 95 55 84 38 -9 -15 -157 -120 -211 -150 -25
-14 -60 -46 -78 -70 -18 -25 -46 -51 -62 -59 -16 -7 -44 -21 -63 -30 -20 -9
-46 -34 -60 -58 -16 -25 -49 -57 -84 -79 -60 -38 -117 -96 -117 -118 0 -7 -15
-30 -33 -52 -19 -21 -44 -57 -57 -79 -12 -22 -53 -68 -90 -101 -55 -51 -76
-64 -121 -73 -36 -8 -69 -24 -99 -49 -85 -70 -85 -70 -72 -46 13 24 101 94
150 118 18 10 42 32 53 50 10 18 30 38 44 44 14 6 25 17 25 24 0 7 12 21 28
32 40 27 84 87 76 105 -16 39 -8 56 41 89 34 23 50 41 50 55 0 17 12 26 50 40
58 21 65 30 65 77 0 19 9 60 20 90 26 73 26 110 0 117 -16 4 -20 14 -20 44 0
22 -7 56 -16 77 -19 45 -38 262 -24 276 6 6 10 39 11 76 l0 65 24 -60 c13 -33
24 -67 24 -75z"/>
<path d="M4565 1528 c-40 -40 -75 -84 -79 -98 -4 -14 -17 -43 -28 -66 -20 -39
-20 -42 -5 -74 11 -20 17 -57 17 -96 0 -77 6 -94 35 -94 26 0 78 -24 95 -45
14 -17 77 -11 121 11 26 13 86 81 107 121 17 32 15 46 -14 89 -25 37 -26 40
-13 94 15 59 15 65 -3 125 -15 52 -43 83 -87 95 -61 17 -71 12 -146 -62z m174
24 c12 -9 30 -37 38 -61 14 -43 14 -57 -3 -149 -5 -25 0 -41 20 -72 34 -52 28
-75 -38 -143 -41 -44 -60 -55 -91 -59 -24 -3 -46 0 -55 7 -26 21 -78 45 -100
45 -19 0 -20 5 -19 68 1 46 -4 79 -15 100 -16 30 -15 34 4 72 11 21 20 46 20
55 0 9 34 50 75 92 70 70 77 75 108 69 17 -3 43 -14 56 -24z"/>
<path d="M4630 1482 c-29 -9 -50 -36 -50 -63 0 -16 -11 -45 -25 -65 -20 -29
-24 -45 -19 -68 9 -44 22 -66 39 -66 8 0 22 -14 30 -31 14 -26 21 -30 53 -27
l37 3 1 93 c1 87 0 94 -24 112 -22 18 -24 25 -18 64 7 46 2 57 -24 48z m3 -57
c-5 -29 -1 -41 18 -61 20 -21 23 -36 25 -104 1 -76 0 -80 -21 -80 -14 0 -26 9
-33 25 -7 14 -23 29 -36 34 -34 14 -39 61 -10 109 13 20 24 48 24 63 0 24 16
49 31 49 4 0 5 -16 2 -35z"/>
<path d="M1503 1575 c-22 -9 -33 -21 -33 -34 0 -15 -14 -27 -47 -43 l-47 -23
-23 -90 c-13 -49 -32 -102 -43 -117 -24 -33 -26 -68 -4 -68 11 0 14 -5 10 -16
-18 -47 -17 -63 3 -73 11 -6 24 -11 28 -10 24 4 33 -4 33 -30 0 -16 7 -34 15
-41 8 -7 15 -23 15 -35 0 -12 6 -28 14 -34 17 -14 27 -5 59 54 16 28 31 41 53
46 17 3 42 13 54 22 14 10 33 14 47 11 43 -11 94 42 73 76 -6 10 -15 9 -43 -1
-30 -11 -39 -10 -60 4 -27 18 -122 16 -140 -2 -6 -6 -16 -11 -23 -11 -24 0
-24 34 2 77 24 41 25 46 10 68 -24 37 -20 47 39 99 31 26 55 56 55 66 0 25 29
40 77 40 45 1 76 21 71 47 -3 14 -14 19 -53 21 -28 1 -63 4 -80 7 -16 3 -45
-2 -62 -10z m82 -14 c3 -6 29 -8 58 -5 48 5 51 4 33 -10 -11 -9 -37 -16 -59
-16 -49 0 -99 -28 -92 -51 4 -12 -12 -32 -50 -64 -58 -50 -72 -89 -40 -115 13
-11 11 -18 -12 -60 -23 -42 -25 -52 -15 -74 12 -28 49 -35 69 -15 18 18 95 19
120 3 26 -16 69 -19 78 -4 3 6 11 10 17 10 6 0 4 -9 -4 -22 -12 -18 -25 -23
-56 -24 -25 0 -49 -7 -61 -18 -11 -10 -27 -16 -34 -13 -22 8 -55 -19 -79 -66
-22 -40 -23 -41 -26 -15 -2 14 -10 32 -18 38 -8 7 -14 23 -14 36 0 28 -27 57
-47 50 -27 -11 -33 5 -17 44 18 44 12 75 -12 66 -16 -6 -12 6 12 34 7 8 17 33
23 55 37 147 38 150 82 159 22 4 34 14 42 35 6 16 20 34 31 40 27 13 63 14 71
2z"/>
<path d="M2602 1528 c-5 -7 -13 -28 -17 -46 -4 -22 -15 -36 -31 -42 -32 -13
-57 -74 -50 -126 5 -41 -14 -125 -35 -151 -14 -16 -5 -109 13 -130 10 -13 14
-11 30 9 9 13 18 33 18 45 0 28 46 133 58 133 17 0 40 -35 53 -80 17 -58 48
-112 63 -107 26 8 18 142 -17 282 -24 98 -37 165 -37 196 0 22 -5 29 -19 29
-10 0 -23 -6 -29 -12z m47 -143 c6 -33 15 -78 21 -100 22 -80 29 -121 29 -175
1 -54 0 -55 -13 -25 -8 17 -21 51 -30 76 -9 25 -28 57 -42 70 l-26 24 -24 -30
c-14 -16 -27 -42 -31 -58 -3 -15 -10 -30 -14 -33 -5 -3 -9 -18 -9 -34 0 -42
-18 -46 -25 -6 -5 25 0 52 20 102 21 52 25 76 21 109 -8 51 11 102 45 119 13
6 26 20 28 31 2 11 8 31 14 45 12 28 10 34 36 -115z"/>
<path d="M2566 1362 c-18 -53 -13 -87 12 -77 8 3 19 0 23 -7 6 -10 11 -10 20
-1 7 7 9 31 4 72 -6 50 -10 61 -25 61 -13 0 -23 -14 -34 -48z m41 -17 c3 -29
0 -35 -16 -35 -17 0 -18 3 -8 35 13 44 21 44 24 0z"/>
</g>
</svg>
